<svg xmlns="http://www.w3.org/2000/svg" viewBox="0 0 315.27 441.84" class="rd-svg-filled">
  <path class="rd-svg-filled-main" d="M285.27,199.71l21.21-21.22a30,30,0,0,0,0-42.42L179.2,8.79a30,30,0,0,0-42.43,0L9.49,136.07a30,30,0,0,0,0,42.42h0a30,30,0,0,0,42.43,0L147.38,83a15,15,0,0,1,21.21,0l63.64,63.64a15,15,0,0,1,0,21.22l-31.82,31.82a30,30,0,0,0,0,42.42h0a30,30,0,0,0,42.43,0l42.43-42.42Z"/>
  <rect class="rd-svg-filled-secondary" x="-26.36" y="191.63" width="240" height="60" rx="30" transform="translate(-129.29 131.13) rotate(-45)"/>
  <path class="rd-svg-filled-main" d="M9.49,433.05h0a30,30,0,0,0,42.43,0l95.46-95.46a15,15,0,0,1,21.21,0l95.46,95.46a30,30,0,0,0,42.43,0h0a30,30,0,0,0,0-42.43L200.41,284.56,179.2,263.35a30,30,0,0,0-42.43,0L9.49,390.62A30,30,0,0,0,9.49,433.05Z"/>
</svg>