<svg xmlns="http://www.w3.org/2000/svg" class="rd-svg-outlined rd-svg-filled" width="1178.924" height="347.125" viewBox="0 0 1178.924 347.125">
  <g id="Group_82" data-name="Group 82" transform="translate(-19165.55 -4820.99)">
    <path id="Path_764" data-name="Path 764" class="rd-svg-outlined-main rd-svg-filled-main" d="M63.7-204.6H32.55V0H63.7V-113c0-41.85,33.015-64.17,69.285-64.17v-30.69A90.921,90.921,0,0,0,63.7-176.7Z" transform="translate(19138 5158)" fill="#26191f" stroke="#26191f" stroke-width="10"/>
    <path id="Path_763" data-name="Path 763" class="rd-svg-outlined-main rd-svg-filled-main" d="M228.315-101.835c0-58.125-47.9-106.02-106.02-106.02S16.275-159.96,16.275-101.835C16.275-44.64,64.17,5.115,122.3,5.115c41.385,0,78.12-23.715,95.325-59.055h-38.6C166-37.2,146.01-25.575,122.3-25.575c-36.27,0-65.565-27.9-72.075-61.845h178.1ZM122.3-177.165c35.805,0,65.1,26.04,72.075,59.985H50.22C57.195-151.125,86.025-177.165,122.3-177.165Z" transform="translate(19284 5158)" fill="#26191f" stroke="#26191f" stroke-width="10"/>
    <path id="Path_761" data-name="Path 761" class="rd-svg-outlined-secondary rd-svg-filled-secondary" d="M201.81,0h31.155V-332.01H201.81v160.89c-18.6-22.32-46.035-36.735-77.19-36.735C66.5-207.855,18.6-159.96,18.6-101.835,18.6-44.64,66.5,5.115,124.62,5.115c31.155,0,58.59-14.88,77.19-37.665ZM123.69-25.575c-41.385,0-72.54-35.805-72.54-76.26,0-41.385,31.155-75.33,72.54-75.33,40.455,0,76.26,33.945,76.26,75.33C199.95-61.38,164.145-25.575,123.69-25.575Z" transform="translate(19533 5158)" fill="#26191f" stroke="#26191f" stroke-width="10"/>
    <path id="Path_762" data-name="Path 762" class="rd-svg-outlined-secondary rd-svg-filled-secondary" d="M50.22-245.985a22.232,22.232,0,0,0,21.855-22.32c0-11.16-10.23-21.39-21.855-21.39-12.555,0-22.32,10.23-22.32,21.39A22.034,22.034,0,0,0,50.22-245.985ZM34.41,0H66.96V-204.6H34.41Z" transform="translate(19785 5158)" fill="#26191f" stroke="#26191f" stroke-width="10"/>
    <path id="Path_760" data-name="Path 760" class="rd-svg-outlined-main rd-svg-filled-main" d="M122.3,5.115c31.155,0,58.59-14.88,77.19-37.665V.93H230.64V-204.6H199.485v33.48c-18.6-22.32-46.035-36.735-77.19-36.735-58.125,0-106.02,47.895-106.02,106.02C16.275-44.64,64.17,5.115,122.3,5.115Zm-.93-30.69c-41.385,0-72.54-35.805-72.54-76.26,0-41.385,31.155-75.33,72.54-75.33,40.455,0,76.26,33.945,76.26,75.33C197.625-61.38,161.82-25.575,121.365-25.575Z" transform="translate(19880.084 5158)" fill="#26191f" stroke="#26191f" stroke-width="10"/>
    <path id="Path_759" data-name="Path 759" class="rd-svg-outlined-main rd-svg-filled-main" d="M32.55,0H63.7V-108.81c0-46.035,25.575-69.285,66.96-68.355,33.945,0,52.545,20,52.545,60.45V0h31.155V-116.715c0-65.1-25.11-91.14-83.7-91.14-27.9,0-50.685,10.23-66.96,27.9V-204.6H32.55Z" transform="translate(20125.109 5158)" fill="#26191f" stroke="#26191f" stroke-width="10"/>
  </g>
</svg>
